<svg width="37" height="38" viewBox="0 0 37 38" fill="none" xmlns="http://www.w3.org/2000/svg">
<rect y="0.332321" width="37" height="37" rx="18.5" fill="black" fill-opacity="0.6"/>
<path d="M15.5234 23.3323V14.6678H13.8223C13.4837 14.9132 13.1431 15.1587 12.8003 15.4041C12.4575 15.6495 12.1147 15.895 11.772 16.1404V17.7146C11.992 17.5581 12.21 17.4036 12.4258 17.2513C12.6458 17.0947 12.8659 16.9381 13.0859 16.7815C13.306 16.625 13.5239 16.4705 13.7397 16.3182H13.8223V23.3323H15.5234Z" fill="#FFD60A"/>
<path d="M24.1138 22.0784L25.1421 21.0437L23.041 18.9427L25.1421 16.8353L24.1074 15.8006L22.0063 17.908L19.9053 15.8069L18.877 16.8353L20.978 18.9427L18.8579 21.0628L19.8862 22.0975L22.0063 19.971L24.1138 22.0784Z" fill="#FFD60A"/>
</svg>
