<svg width="37" height="38" viewBox="0 0 37 38" fill="none" xmlns="http://www.w3.org/2000/svg">
<rect y="0.332275" width="37" height="37" rx="18.5" fill="black" fill-opacity="0.6"/>
<path d="M12.6543 17.2512C12.6543 17.2428 12.6543 17.2301 12.6543 17.2131C12.6543 17.192 12.6543 17.1729 12.6543 17.156C12.6543 16.9317 12.7051 16.7222 12.8066 16.5276C12.9124 16.3287 13.0627 16.17 13.2573 16.0515C13.452 15.933 13.6847 15.8738 13.9556 15.8738C14.2052 15.8738 14.4274 15.9267 14.6221 16.0325C14.8167 16.134 14.9691 16.2758 15.0791 16.4578C15.1934 16.6397 15.2505 16.8492 15.2505 17.0862C15.2505 17.3232 15.2018 17.5453 15.1045 17.7527C15.0072 17.96 14.8844 18.1547 14.7363 18.3367C14.5882 18.5144 14.4359 18.6858 14.2793 18.8508L11.1118 22.2659V23.3323H17.0977V21.9358H13.4604V21.8533L15.4282 19.6824C15.6821 19.4031 15.9233 19.1301 16.1519 18.8635C16.3846 18.5927 16.575 18.3028 16.7231 17.9939C16.8755 17.6807 16.9517 17.3253 16.9517 16.9275C16.9517 16.4662 16.8289 16.0536 16.5835 15.6897C16.3423 15.3215 15.9995 15.0317 15.5552 14.8201C15.1108 14.6085 14.5903 14.5027 13.9937 14.5027C13.4901 14.5027 13.0521 14.5789 12.6797 14.7312C12.3115 14.8835 12.0047 15.0867 11.7593 15.3406C11.5138 15.5945 11.3298 15.8801 11.207 16.1975C11.0885 16.5107 11.0293 16.8344 11.0293 17.1687V17.2512H12.6543Z" fill="#FFD60A"/>
<path d="M24.1138 22.0784L25.1421 21.0437L23.041 18.9426L25.1421 16.8352L24.1074 15.8005L22.0063 17.908L19.9053 15.8069L18.877 16.8352L20.978 18.9426L18.8579 21.0627L19.8862 22.0974L22.0063 19.9709L24.1138 22.0784Z" fill="#FFD60A"/>
</svg>
