<svg width="49" height="49" viewBox="0 0 49 49" fill="none" xmlns="http://www.w3.org/2000/svg">
<rect x="0.5" y="0.666687" width="48" height="48" rx="24" fill="white" fill-opacity="0.2"/>
<path d="M29.1562 27.3281L31.4229 24.5244C31.6162 24.2773 31.7236 24.0518 31.7236 23.8047C31.7236 23.3535 31.3799 23.0312 30.8965 23.0312L24.8809 22.9346L27.9424 14.2227C28.3613 13.041 27.1797 12.4287 26.3955 13.3848L21.4004 19.583L29.1562 27.3281ZM31.5625 34.042C31.8955 34.375 32.4434 34.375 32.7656 34.042C33.0986 33.7197 33.1094 33.1611 32.7656 32.8281L16.2119 16.2744C15.8896 15.9521 15.3203 15.9414 14.998 16.2744C14.6758 16.5967 14.6758 17.166 14.998 17.4883L31.5625 34.042ZM21.3896 36.9424L26.3848 30.7549L18.6289 22.999L16.373 25.8027C16.1797 26.0391 16.0723 26.2646 16.0723 26.5225C16.0723 26.9629 16.416 27.2959 16.8994 27.2959L22.9043 27.3818L19.8535 36.0938C19.4453 37.2754 20.6162 37.8877 21.3896 36.9424Z" fill="white"/>
</svg>
