<svg width="49" height="49" viewBox="0 0 49 49" fill="none" xmlns="http://www.w3.org/2000/svg">
<rect x="0.5" y="0.666687" width="48" height="48" rx="24" fill="white" fill-opacity="0.2"/>
<path d="M15.9863 17.3698C15.4707 17.8854 15.5029 18.5622 15.9326 18.9382C16.373 19.3356 16.9961 19.3356 17.5117 18.8415C19.1123 17.1013 21.4326 16.0056 24 16.0056C28.5439 16.0056 32.2178 19.3464 32.8086 23.6325H31.1865C30.3701 23.6325 30.1445 24.2341 30.6172 24.9001L33.1738 28.5095C33.5605 29.0466 34.1514 29.0466 34.5488 28.5095L37.1055 24.9108C37.5889 24.2448 37.3633 23.6325 36.5361 23.6325H35.0322C34.3984 18.1862 29.6719 13.8141 24 13.8141C20.8418 13.8141 17.9629 15.2106 15.9863 17.3698ZM10.8838 24.9216C10.4111 25.5876 10.626 26.1999 11.4531 26.1999H12.9785C13.6016 31.6462 18.3281 36.0182 24 36.0182C27.1689 36.0182 30.0479 34.6218 32.0352 32.4518C32.54 31.9362 32.5078 31.2595 32.0781 30.8727C31.6377 30.4753 31.0254 30.486 30.499 30.9802C28.9092 32.7311 26.5889 33.8268 24 33.8268C19.4668 33.8268 15.7822 30.4968 15.1914 26.1999H16.8027C17.6191 26.1999 17.8447 25.5983 17.3721 24.9323L14.8154 21.3229C14.4287 20.7858 13.8379 20.7858 13.4512 21.3229L10.8838 24.9216Z" fill="white"/>
</svg>
