<svg width="73" height="73" viewBox="0 0 73 73" fill="none" xmlns="http://www.w3.org/2000/svg">
<path fill-rule="evenodd" clip-rule="evenodd" d="M68.5 36.6667C68.5 54.3398 54.1731 68.6667 36.5 68.6667C18.8269 68.6667 4.5 54.3398 4.5 36.6667C4.5 18.9936 18.8269 4.66669 36.5 4.66669C54.1731 4.66669 68.5 18.9936 68.5 36.6667ZM72.5 36.6667C72.5 56.5489 56.3823 72.6667 36.5 72.6667C16.6177 72.6667 0.5 56.5489 0.5 36.6667C0.5 16.7844 16.6177 0.666687 36.5 0.666687C56.3823 0.666687 72.5 16.7844 72.5 36.6667ZM36.5 66.6667C53.0685 66.6667 66.5 53.2352 66.5 36.6667C66.5 20.0981 53.0685 6.66669 36.5 6.66669C19.9315 6.66669 6.5 20.0981 6.5 36.6667C6.5 53.2352 19.9315 66.6667 36.5 66.6667Z" fill="white"/>
</svg>
